<?xml version="1.0" standalone="no"?>
<!DOCTYPE svg PUBLIC "-//W3C//DTD SVG 20010904//EN"
 "http://www.w3.org/TR/2001/REC-SVG-20010904/DTD/svg10.dtd">
<svg version="1.0" xmlns="http://www.w3.org/2000/svg"
 width="500.000000pt" height="500.000000pt" viewBox="0 0 500.000000 500.000000"
 preserveAspectRatio="xMidYMid meet">
<metadata>
Created by potrace 1.11, written by Peter Selinger 2001-2013
</metadata>
<g transform="translate(0.000000,500.000000) scale(0.100000,-0.100000)"
fill="#000000" stroke="none">
<path d="M2698 4978 c-38 -59 -160 -292 -194 -369 l-38 -87 -59 -6 c-32 -3
-63 -4 -67 -1 -4 3 -31 46 -60 97 -43 76 -203 320 -230 351 -4 4 -75 -9 -159
-30 -167 -41 -154 -32 -165 -125 -5 -43 -4 -48 14 -48 11 0 20 -7 20 -15 0 -8
-9 -15 -19 -15 -28 0 -32 -20 -37 -185 -3 -82 -7 -160 -10 -173 -3 -15 -22
-31 -59 -49 l-54 -26 -73 57 c-40 31 -100 75 -132 98 -68 47 -60 51 -123 -62
-42 -76 -41 -75 -49 -67 -3 3 15 45 41 93 l48 87 -24 18 c-24 18 -24 18 -50
-24 -14 -23 -42 -71 -62 -107 l-36 -66 122 -212 122 -212 165 0 c129 1 169 4
184 15 18 13 1 15 -152 15 -108 0 -172 4 -172 10 0 6 71 10 194 10 176 0 199
2 243 21 236 104 415 142 673 143 258 0 449 -41 684 -148 331 -151 630 -451
781 -781 47 -104 100 -262 119 -355 34 -167 43 -424 20 -543 l-6 -27 104 0
105 0 99 172 c54 95 101 186 104 202 4 26 20 39 120 96 92 53 292 185 333 220
7 6 -59 297 -70 310 -8 9 -299 39 -383 40 -146 1 -158 5 -188 66 l-26 53 76
98 c41 54 86 116 100 138 14 22 50 79 81 126 l55 86 -80 109 c-44 60 -86 117
-93 127 -13 18 -19 17 -161 -23 -138 -40 -194 -58 -320 -108 l-51 -21 -48 43
-48 42 31 109 c29 105 82 372 82 411 0 14 -38 41 -127 94 -69 41 -130 76 -134
78 -11 5 -255 -193 -341 -276 l-77 -74 -53 17 c-29 10 -56 20 -60 24 -5 4 -15
58 -23 121 -15 119 -72 400 -84 412 -6 7 -256 48 -291 48 -10 0 -24 -10 -32
-22z"/>
<path d="M1009 4518 c-68 -50 -125 -92 -127 -93 -1 -1 3 -23 10 -49 l12 -46
96 0 97 0 63 110 c70 122 70 112 -1 154 -26 15 -28 14 -150 -76z"/>
<path d="M914 4294 c3 -9 9 -27 12 -40 6 -22 11 -24 65 -24 33 0 59 -4 59 -10
0 -5 -25 -10 -55 -10 -55 0 -55 0 -49 -27 4 -16 28 -85 54 -155 l47 -127 -41
-47 -42 -48 -115 32 c-106 29 -372 82 -408 82 -10 0 -46 -50 -91 -127 -41 -69
-76 -130 -78 -134 -4 -8 212 -282 246 -312 20 -19 21 -18 47 23 49 78 50 81
16 138 -22 37 -26 52 -16 52 7 0 26 -23 42 -51 l28 -52 89 7 c49 3 155 6 235
6 l147 0 117 204 117 203 -123 214 -124 214 -93 3 c-82 2 -92 1 -86 -14z m349
-428 c-36 -64 -231 -335 -241 -336 -8 0 0 19 19 48 130 189 212 302 220 302 6
0 7 -6 2 -14z m-680 -152 c93 -167 107 -196 95 -192 -7 3 -27 29 -43 59 -91
161 -115 211 -103 207 7 -3 30 -36 51 -74z"/>
<path d="M2275 3875 c-227 -36 -451 -133 -627 -272 -317 -250 -509 -609 -536
-998 -7 -101 -1 -289 9 -300 3 -3 27 6 53 21 83 46 160 32 224 -40 34 -39 48
-88 38 -140 -10 -51 -81 -151 -142 -199 -29 -23 -53 -44 -53 -47 -1 -3 21 -43
48 -89 l48 -83 21 34 c31 50 125 139 179 170 77 45 143 38 206 -21 60 -54 73
-129 38 -206 -25 -56 -124 -161 -183 -194 l-49 -28 39 -35 c62 -56 141 -112
230 -164 l83 -47 75 74 75 74 -58 5 -58 5 1 47 c0 26 3 51 7 55 4 3 55 2 113
-4 l107 -11 43 -43 44 -43 -100 -101 c-55 -55 -100 -103 -100 -107 0 -11 136
-49 230 -64 112 -18 343 -18 450 1 509 90 921 441 1090 930 96 276 96 614 0
890 -31 91 -24 88 -145 55 -87 -23 -243 -31 -351 -17 l-62 8 26 -68 c22 -59
26 -85 26 -188 1 -98 -3 -133 -21 -190 -40 -126 -84 -186 -268 -367 -93 -93
-177 -168 -185 -168 -9 0 -38 22 -64 49 -39 39 -47 54 -43 73 4 12 59 70 122
128 176 159 252 258 269 350 4 21 3 28 -2 16 -7 -16 -15 -9 -57 50 -115 161
-276 329 -447 467 -34 27 -52 48 -45 51 7 4 -1 4 -18 1 -16 -3 -63 -22 -104
-42 -64 -32 -92 -57 -224 -194 -82 -87 -156 -160 -164 -163 -17 -7 -123 90
-123 111 0 14 104 127 242 264 99 98 171 145 278 183 75 26 99 30 200 30 99 0
125 -3 188 -25 l73 -26 -8 71 c-12 111 -6 243 17 330 11 44 17 83 13 87 -11
10 -121 38 -218 55 -98 17 -340 17 -450 -1z m723 -1454 c1 -4 -4 -16 -12 -26
-14 -19 -33 -3 -345 310 l-330 329 21 23 22 23 320 -326 c177 -180 322 -330
324 -333z m-395 45 c48 -50 113 -124 144 -164 55 -71 56 -73 38 -92 -10 -11
-22 -19 -25 -18 -4 2 -44 49 -89 105 -45 56 -181 198 -301 315 -121 117 -222
219 -225 227 -3 8 2 22 11 33 17 17 24 11 188 -148 94 -91 211 -207 259 -258z
m-825 343 c95 -10 98 -11 140 -52 l42 -41 -182 -183 -183 -183 -47 47 -48 47
132 133 133 133 -63 0 -62 0 0 33 c0 47 10 77 27 77 7 0 57 -5 111 -11z m394
-353 c37 -8 85 -51 110 -99 40 -80 7 -167 -104 -273 -131 -126 -230 -138 -316
-40 -75 86 -58 179 57 299 75 79 170 132 216 121 6 -1 22 -5 37 -8z m445 -417
c15 -5 43 -25 61 -42 96 -91 82 -187 -44 -318 -138 -142 -252 -156 -341 -40
-60 78 -39 173 59 277 105 111 191 151 265 123z"/>
<path d="M2115 2335 c-36 -15 -169 -151 -179 -183 -9 -29 8 -52 39 -52 46 0
205 160 205 207 0 32 -29 44 -65 28z"/>
<path d="M2545 1911 c-43 -27 -152 -142 -163 -172 -13 -33 2 -59 33 -59 44 0
205 159 205 204 0 23 -17 46 -34 46 -6 0 -24 -9 -41 -19z"/>
<path d="M1237 3653 l-125 -218 -242 -5 -241 -5 -34 -60 -34 -60 31 -32 31
-32 -23 -60 -22 -60 -56 -6 c-78 -9 -76 -8 -105 -58 l-27 -45 122 -211 121
-212 126 3 126 3 7 75 c29 292 148 589 333 825 79 101 219 236 326 314 l83 61
-136 0 -135 0 -126 -217z m-167 -273 c0 -6 -73 -10 -200 -10 -127 0 -200 4
-200 10 0 6 73 10 200 10 127 0 200 -4 200 -10z m-485 -532 c53 -98 95 -183
93 -190 -3 -7 -50 71 -106 172 -55 101 -98 188 -95 193 7 11 -4 27 108 -175z"/>
<path d="M3115 3738 c-13 -39 -25 -96 -24 -113 1 -13 4 -9 8 9 l6 29 29 -39
c73 -97 210 -246 316 -342 63 -57 114 -108 112 -113 -3 -13 14 -11 80 7 32 9
58 21 58 26 0 19 -90 145 -152 214 -136 150 -237 230 -421 331 -4 2 -9 -2 -12
-9z"/>
<path d="M3084 3498 c7 -87 29 -188 53 -246 9 -22 26 -38 50 -48 62 -26 205
-54 278 -54 70 0 70 0 39 16 -40 19 -259 235 -343 337 -35 42 -68 77 -74 77
-6 0 -7 -29 -3 -82z"/>
<path d="M2615 3203 c16 -2 59 -29 95 -58 149 -122 412 -417 423 -475 2 -14 5
7 6 45 1 93 -19 167 -77 279 -42 81 -52 94 -97 118 -108 60 -205 90 -295 93
-47 2 -72 1 -55 -2z"/>
<path d="M245 3069 c-71 -16 -134 -31 -140 -33 -5 -2 51 -5 127 -5 l136 -1 21
35 c25 43 30 43 -144 4z"/>
<path d="M30 2950 l0 -30 155 0 c97 0 155 -4 155 -10 0 -6 -59 -10 -158 -10
l-159 0 -11 -77 c-7 -43 -12 -86 -12 -95 0 -33 443 -265 459 -241 3 5 21 33
40 61 18 29 37 52 42 52 14 0 11 -7 -28 -66 -38 -57 -42 -83 -25 -149 7 -23
13 -17 66 76 42 75 56 106 49 119 -4 10 -57 104 -118 209 l-110 191 -172 0
-173 0 0 -30z"/>
<path d="M581 2462 c-34 -59 -70 -112 -81 -117 -111 -57 -399 -240 -463 -295
-7 -6 59 -297 70 -310 8 -9 299 -39 383 -40 146 -1 158 -5 188 -66 l26 -53
-76 -98 c-41 -54 -86 -116 -100 -138 -14 -22 -50 -79 -81 -126 l-55 -86 80
-109 c44 -60 86 -117 93 -127 13 -18 20 -17 172 27 87 25 203 63 258 84 l100
40 48 -40 c26 -22 47 -43 47 -47 0 -4 -13 -54 -29 -112 -28 -100 -81 -367 -81
-405 0 -14 38 -41 127 -94 69 -41 130 -76 134 -78 11 -5 248 187 341 276 l77
74 48 -16 c26 -9 54 -20 60 -24 8 -5 19 -57 28 -123 15 -118 72 -399 84 -411
9 -10 288 -51 304 -45 16 6 165 278 212 388 l37 86 60 7 c33 3 64 4 68 1 4 -3
33 -50 64 -105 44 -76 209 -326 231 -348 3 -4 115 24 121 31 2 2 -50 98 -117
213 -67 115 -122 214 -122 220 0 6 55 106 122 223 100 171 122 217 117 238 -5
18 -12 24 -24 20 -9 -3 -56 -16 -105 -31 -481 -142 -1004 -47 -1412 257 -207
154 -394 382 -492 597 -108 237 -146 391 -159 641 l-7 129 -117 0 -117 0 -62
-108z"/>
<path d="M4434 2435 c-45 -77 -86 -149 -91 -160 -9 -17 6 -49 91 -195 98 -167
104 -175 136 -178 33 -3 368 64 382 77 7 6 48 257 48 292 0 20 -190 132 -340
201 -99 46 -80 57 -172 -109 -56 -100 -78 -130 -78 -105 0 4 32 63 70 132 56
101 67 127 56 135 -7 6 -15 19 -17 30 -3 14 -30 -24 -85 -120z"/>
<path d="M1254 2224 c-45 -23 -94 -75 -94 -100 0 -12 7 -38 16 -59 l15 -37 26
23 c49 46 103 121 103 145 0 34 -30 46 -66 28z"/>
<path d="M4096 2228 c-3 -7 -6 -25 -9 -40 l-4 -28 93 0 c56 0 94 -4 94 -10 0
-6 -38 -10 -95 -10 -68 0 -97 -4 -99 -12 -47 -158 -65 -208 -101 -288 -24 -52
-65 -133 -93 -180 l-50 -85 35 -62 c19 -35 30 -63 24 -63 -6 0 -25 25 -42 55
l-31 56 -23 -31 -23 -31 23 -25 c12 -13 29 -39 36 -56 l13 -31 89 7 c50 3 156
6 236 6 l146 0 77 133 77 132 -25 25 c-16 16 -27 21 -32 14 -17 -25 -165 -239
-169 -243 -1 -2 -6 -1 -10 2 -3 4 33 65 81 136 76 111 86 131 76 147 -9 15 -7
30 9 75 20 53 24 57 61 63 22 3 40 10 39 14 0 4 -44 81 -97 172 l-97 165 -103
3 c-77 2 -103 -1 -106 -10z"/>
<path d="M1572 1800 c-65 -52 -132 -136 -132 -165 0 -12 7 -28 16 -36 22 -18
66 8 142 84 72 74 95 112 81 139 -15 29 -52 21 -107 -22z"/>
<path d="M4427 1501 l-77 -132 83 -142 c75 -129 85 -142 112 -145 28 -2 34 4
105 125 41 69 76 130 78 134 2 4 -41 63 -95 130 -54 67 -105 131 -114 142 -15
19 -19 14 -92 -112z"/>
<path d="M3665 1383 c-139 -147 -309 -270 -489 -353 -54 -24 -86 -45 -84 -52
4 -10 61 -13 247 -13 l242 0 121 209 122 209 -26 46 c-15 25 -30 46 -35 47 -4
1 -48 -41 -98 -93z"/>
<path d="M3740 1183 c-56 -98 -111 -192 -121 -208 l-18 -31 118 -204 119 -205
98 -3 c111 -3 129 0 162 27 l23 20 -41 146 c-23 81 -61 198 -84 260 l-43 113
41 48 42 48 100 -28 c113 -32 334 -76 333 -67 0 3 -33 62 -73 131 l-72 125
-241 3 -241 2 -102 -177z m550 127 c0 -6 -75 -10 -205 -10 -130 0 -205 4 -205
10 0 6 75 10 205 10 130 0 205 -4 205 -10z m-490 -537 c54 -98 95 -182 92
-187 -6 -10 0 -19 -118 194 -50 91 -89 169 -87 173 7 12 7 12 113 -180z"/>
<path d="M2980 709 c-67 -116 -119 -216 -116 -222 3 -7 56 -100 119 -207 126
-217 119 -211 219 -190 46 10 59 17 63 34 13 67 35 308 35 395 0 56 4 110 9
120 5 9 32 27 60 40 l50 24 73 -57 c40 -31 106 -80 147 -108 l74 -51 18 24
c21 29 35 20 19 -12 -11 -19 -9 -25 11 -40 23 -18 24 -18 42 2 9 12 17 26 17
33 0 6 -53 104 -118 216 l-118 205 -241 3 -241 2 -122 -211z m570 131 c0 -6
-73 -10 -200 -10 -127 0 -200 4 -200 10 0 6 73 10 200 10 127 0 200 -4 200
-10z m-480 -526 c106 -195 106 -194 92 -194 -5 0 -45 64 -87 143 -43 78 -89
161 -102 185 -18 29 -21 42 -11 42 7 0 56 -79 108 -176z"/>
<path d="M3835 469 c-18 -35 -15 -53 13 -68 15 -8 31 -1 88 40 38 28 71 53 73
55 2 2 -32 4 -77 4 -81 0 -82 0 -97 -31z"/>
</g>
</svg>
