<?xml version="1.0" standalone="no"?>
<!DOCTYPE svg PUBLIC "-//W3C//DTD SVG 20010904//EN"
 "http://www.w3.org/TR/2001/REC-SVG-20010904/DTD/svg10.dtd">
<svg version="1.0" xmlns="http://www.w3.org/2000/svg"
 width="500.000000pt" height="500.000000pt" viewBox="0 0 500.000000 500.000000"
 preserveAspectRatio="xMidYMid meet">
<metadata>
Created by potrace 1.11, written by Peter Selinger 2001-2013
</metadata>
<g transform="translate(0.000000,500.000000) scale(0.100000,-0.100000)"
fill="#000000" stroke="none">
<path d="M2692 4968 c-55 -91 -145 -264 -182 -349 l-43 -97 -59 -6 c-32 -4
-62 -5 -67 -2 -5 3 -32 47 -61 98 -29 51 -91 149 -139 217 -47 69 -89 129 -92
133 -3 5 -74 -8 -157 -29 l-152 -37 -5 -36 c-17 -105 -17 -100 5 -100 11 0 20
-4 20 -10 0 -5 -8 -10 -19 -10 -26 0 -31 -27 -38 -221 l-6 -167 -58 -27 -58
-28 -76 59 c-42 32 -102 77 -132 98 -65 45 -58 49 -121 -66 -20 -38 -43 -68
-50 -68 -12 0 -12 3 0 23 23 34 88 153 88 159 0 3 -11 13 -24 21 -24 16 -24
16 -81 -86 -32 -56 -58 -107 -58 -113 0 -5 53 -105 119 -222 l119 -212 155 0
c138 0 158 2 185 20 l30 20 -172 0 c-104 0 -173 4 -173 10 0 5 82 10 203 12
l202 3 99 43 c104 45 240 82 371 103 103 16 367 16 470 0 352 -55 648 -203
899 -449 244 -240 404 -549 463 -892 17 -101 23 -386 10 -452 l-8 -38 108 0
108 1 97 174 c54 95 98 184 98 197 1 19 19 33 106 81 78 43 311 197 352 232 3
3 -69 298 -75 304 -8 10 -303 40 -389 41 -141 0 -151 4 -182 66 l-26 53 74 96
c40 54 111 155 156 225 l83 129 -86 113 c-46 62 -88 119 -92 127 -11 19 -233
-44 -462 -132 l-67 -25 -47 41 -47 42 31 117 c35 129 85 394 78 412 -4 9 -218
145 -258 164 -10 4 -246 -187 -336 -272 l-83 -78 -52 17 c-29 10 -56 20 -60
24 -5 4 -15 58 -23 121 -16 122 -73 400 -84 412 -6 7 -262 48 -296 48 -7 0
-22 -15 -33 -32z"/>
<path d="M1019 4524 c-63 -47 -120 -89 -127 -93 -10 -6 -11 -16 0 -54 l12 -47
97 0 97 0 62 111 c34 61 60 112 58 113 -2 2 -22 15 -44 29 l-42 26 -113 -85z"/>
<path d="M922 4270 l10 -40 64 0 c36 0 64 -4 64 -10 0 -6 -27 -10 -60 -10
l-60 0 6 -27 c6 -23 47 -136 95 -260 7 -18 0 -31 -35 -69 l-42 -47 -115 31
c-106 29 -372 82 -408 82 -10 0 -46 -50 -91 -127 -41 -69 -76 -129 -78 -133
-3 -7 160 -215 230 -294 l35 -40 35 63 36 64 -29 49 c-33 56 -34 58 -16 58 6
0 25 -23 40 -50 l28 -50 236 2 236 3 114 200 c62 110 112 207 109 216 -2 9
-56 109 -121 223 l-117 206 -88 0 -88 0 10 -40z"/>
<path d="M2275 3875 c-353 -56 -674 -253 -896 -550 -130 -173 -215 -378 -255
-610 -16 -93 -18 -395 -3 -410 4 -3 22 4 42 15 82 49 148 45 213 -12 45 -40
64 -77 64 -125 -1 -73 -68 -180 -156 -247 -36 -27 -40 -35 -32 -55 12 -35 78
-141 87 -141 3 0 15 14 25 31 29 49 125 138 178 165 51 26 115 31 151 13 104
-53 136 -163 78 -264 -33 -57 -143 -165 -190 -186 -29 -13 -29 -14 -13 -33 31
-34 166 -132 250 -181 l83 -48 75 74 75 74 -58 5 -58 5 -3 40 c-4 67 1 70 123
58 l106 -10 45 -44 44 -43 -102 -103 c-56 -56 -99 -105 -95 -109 11 -11 138
-45 227 -60 100 -17 321 -18 423 -3 157 23 374 100 501 176 305 184 535 478
630 806 47 161 59 262 53 441 -5 168 -19 248 -66 396 -31 98 -26 96 -151 60
-82 -24 -234 -31 -348 -17 l-63 8 14 -28 c49 -97 58 -297 20 -418 -40 -127
-84 -186 -267 -368 -94 -92 -177 -167 -186 -167 -23 0 -110 92 -110 117 0 15
40 58 130 139 120 109 147 136 119 118 -7 -4 -146 128 -340 322 l-328 328 21
23 22 24 328 -333 328 -333 30 35 c17 19 43 59 57 88 l26 53 -36 52 c-113 163
-291 356 -444 479 -48 38 -78 68 -70 71 6 3 4 6 -7 6 -10 1 -53 -15 -95 -35
-69 -32 -92 -53 -242 -205 -91 -93 -168 -169 -173 -169 -14 0 -116 103 -116
118 0 9 35 52 77 96 248 258 304 302 448 352 69 24 96 28 195 28 98 0 126 -3
188 -25 l74 -26 -6 41 c-20 155 -15 273 20 390 8 27 14 51 14 52 0 4 -57 23
-100 35 -151 38 -414 50 -575 24z m368 -1449 c29 -34 77 -92 107 -129 l53 -68
-22 -22 -22 -22 -22 30 c-67 92 -217 253 -395 424 -111 107 -202 199 -202 204
0 6 7 18 16 28 16 17 28 7 225 -183 115 -111 233 -229 262 -262z m-858 383
c87 -10 91 -12 135 -55 l45 -44 -180 -180 c-99 -99 -184 -180 -189 -180 -4 0
-29 21 -54 46 l-45 46 134 134 134 134 -63 0 -62 0 0 33 c0 83 1 83 145 66z
m419 -367 c16 -10 43 -34 60 -55 27 -34 31 -47 31 -96 -1 -71 -29 -122 -114
-206 -109 -107 -195 -132 -277 -79 -122 79 -117 198 14 336 112 117 201 148
286 100z m455 -426 c116 -80 105 -208 -29 -342 -84 -84 -147 -118 -211 -112
-89 9 -159 84 -159 171 0 59 27 114 88 179 127 136 220 167 311 104z"/>
<path d="M2114 2334 c-40 -21 -161 -142 -175 -176 -9 -22 -9 -31 1 -43 26 -31
60 -17 137 58 100 96 125 145 85 166 -13 7 -27 5 -48 -5z"/>
<path d="M2545 1911 c-41 -25 -140 -129 -159 -165 -19 -37 -6 -66 31 -66 19 0
48 23 114 89 90 89 106 120 77 149 -16 16 -28 15 -63 -7z"/>
<path d="M1239 3655 l-121 -215 -242 0 -242 0 -38 -66 -38 -66 31 -32 c17 -18
31 -35 31 -39 0 -3 -9 -31 -20 -61 l-21 -54 -52 -7 c-79 -10 -84 -13 -111 -61
l-25 -45 117 -207 118 -207 132 -3 132 -3 0 48 c0 119 53 332 126 503 107 255
286 481 517 656 l98 74 -135 0 -135 0 -122 -215z"/>
<path d="M3102 3689 c-7 -28 -11 -58 -11 -67 1 -9 4 -4 8 12 l6 29 41 -54 c73
-96 228 -262 327 -348 53 -47 94 -88 91 -93 -8 -12 9 -10 76 9 33 9 60 20 60
24 0 15 -101 157 -152 215 -62 68 -155 156 -214 202 -54 41 -191 122 -208 122
-7 0 -18 -22 -24 -51z"/>
<path d="M3084 3494 c9 -105 50 -253 76 -275 30 -26 167 -58 271 -65 l94 -6
-31 20 c-44 28 -278 263 -343 345 -30 37 -59 67 -64 67 -6 0 -7 -33 -3 -86z"/>
<path d="M2615 3203 c81 -12 501 -445 518 -534 2 -13 5 8 6 48 1 85 -29 190
-87 298 -37 70 -37 70 -133 117 -116 57 -193 79 -274 77 -33 -1 -47 -4 -30 -6z"/>
<path d="M320 3084 c-36 -7 -108 -24 -160 -36 l-95 -23 145 -3 145 -3 22 28
c23 28 30 54 16 52 -5 0 -37 -7 -73 -15z"/>
<path d="M36 2974 c-3 -9 -6 -24 -6 -35 0 -18 9 -19 155 -19 97 0 155 -4 155
-10 0 -6 -59 -10 -158 -10 l-159 0 -11 -82 c-7 -46 -12 -88 -12 -95 0 -28 445
-256 459 -235 3 5 21 32 40 60 18 29 37 52 42 52 14 0 11 -8 -29 -68 -37 -56
-38 -58 -29 -115 l10 -59 58 104 c51 91 57 105 45 123 -7 11 -61 107 -121 213
l-108 192 -162 0 c-139 0 -164 -2 -169 -16z"/>
<path d="M3121 2624 c0 -11 3 -14 6 -6 3 7 2 16 -1 19 -3 4 -6 -2 -5 -13z"/>
<path d="M579 2460 c-35 -60 -69 -110 -75 -110 -7 0 -14 -4 -16 -8 -1 -4 -49
-34 -105 -65 -78 -44 -329 -209 -351 -231 -3 -4 69 -298 75 -305 8 -10 303
-40 389 -41 141 0 151 -4 182 -66 l26 -53 -74 -96 c-40 -54 -111 -155 -156
-225 l-83 -129 86 -113 c46 -62 88 -119 92 -127 11 -19 233 44 462 132 l67 25
47 -41 47 -42 -35 -135 c-45 -171 -83 -388 -70 -401 27 -27 256 -158 266 -152
38 23 254 201 324 267 l83 78 52 -17 c29 -10 56 -20 60 -24 5 -4 15 -58 23
-121 16 -122 73 -400 84 -412 6 -7 262 -48 296 -48 17 0 148 230 211 371 l47
107 59 6 c32 4 62 5 67 2 5 -3 32 -47 61 -98 29 -51 91 -149 139 -217 47 -69
89 -129 92 -133 6 -10 98 9 113 23 5 4 -45 101 -109 215 -65 115 -118 213
-118 219 0 6 55 108 122 227 108 190 121 219 111 238 -8 14 -17 19 -28 15 -60
-23 -205 -59 -307 -75 -309 -51 -666 6 -958 152 -276 138 -526 373 -677 638
-134 236 -201 468 -216 751 l-7 129 -118 0 -118 0 -62 -110z"/>
<path d="M4428 2423 c-48 -83 -89 -156 -90 -161 -2 -5 42 -89 97 -187 l100
-177 65 6 c36 4 130 22 210 40 l145 32 17 100 c9 54 19 124 23 155 l7 57 -134
75 c-73 41 -169 91 -213 111 -94 41 -78 52 -168 -111 -55 -101 -77 -131 -77
-105 0 5 31 65 70 133 56 100 67 126 56 134 -8 6 -15 19 -18 30 -2 14 -31 -27
-90 -132z"/>
<path d="M1265 2230 c-11 -4 -40 -26 -65 -48 l-45 -40 13 -48 c7 -27 15 -50
17 -52 18 -18 135 115 135 153 0 29 -27 46 -55 35z"/>
<path d="M4096 2228 c-3 -7 -6 -25 -9 -40 l-4 -28 93 0 c124 0 122 -18 -2 -22
l-96 -3 -25 -85 c-33 -117 -103 -278 -167 -385 l-53 -89 34 -63 c19 -35 30
-63 24 -63 -6 0 -25 25 -42 55 l-31 56 -24 -32 c-20 -28 -21 -33 -8 -46 8 -8
24 -33 35 -54 l20 -39 237 2 236 3 73 129 c40 71 73 134 73 141 0 18 -40 51
-48 39 -15 -23 -165 -239 -169 -243 -1 -2 -6 -1 -10 2 -3 4 33 65 81 136 76
111 86 131 76 147 -9 15 -7 30 9 75 20 53 24 57 62 63 l40 6 -25 43 c-14 23
-58 101 -99 172 l-73 130 -102 3 c-77 2 -103 -1 -106 -10z"/>
<path d="M1569 1794 c-116 -103 -154 -170 -111 -193 27 -14 65 9 139 81 72 71
96 113 82 140 -17 31 -55 21 -110 -28z"/>
<path d="M4426 1498 c-38 -67 -69 -126 -69 -132 0 -13 130 -243 151 -268 8
-10 27 -18 41 -18 23 0 36 17 101 127 41 69 76 129 78 133 5 13 -212 280 -227
280 -4 0 -37 -55 -75 -122z"/>
<path d="M3750 1472 c0 -14 -193 -200 -267 -257 -89 -69 -227 -151 -326 -194
-53 -23 -74 -37 -70 -47 4 -12 47 -14 250 -12 l245 3 119 208 118 208 -27 50
c-25 44 -42 61 -42 41z"/>
<path d="M3725 1158 c-66 -117 -119 -217 -117 -222 2 -6 55 -102 118 -213
l115 -203 100 0 c93 0 103 2 137 27 20 15 38 28 40 29 7 4 -91 328 -127 419
-43 111 -43 113 23 174 l25 24 113 -31 c127 -35 296 -68 304 -59 3 3 -27 64
-68 136 l-73 130 -235 1 -235 0 -120 -212z"/>
<path d="M3086 898 c-18 -30 -226 -399 -226 -403 0 -5 232 -411 240 -419 4 -4
42 0 84 10 87 20 76 -2 101 206 8 69 15 175 15 235 0 59 4 113 8 118 4 6 30
21 59 34 l52 24 73 -57 c40 -32 107 -80 148 -107 l74 -50 17 23 c21 27 36 19
20 -10 -15 -27 -15 -27 14 -46 24 -16 25 -15 39 12 14 28 12 33 -103 238
l-118 209 -241 3 c-241 2 -241 2 -256 -20z"/>
<path d="M3832 465 l-21 -34 28 -20 28 -20 73 54 74 55 -81 0 -81 0 -20 -35z"/>
</g>
</svg>
